<svg xmlns="http://www.w3.org/2000/svg" id="b" width="800" height="800" version="1.1" viewBox="0 0 48 48"><defs id="defs1"><style id="style1">.c{fill:none;stroke:#000;stroke-linecap:round;stroke-linejoin:round}</style></defs><circle id="circle1" cx="24" cy="24" r="11.6" class="c" style="stroke:none;fill:#000;fill-opacity:1"/><path id="path1" d="M3.3 18.1C2.8 20 2.5 22 2.5 24s.3 4 .8 5.8c.3 0 2.2-.6 2.3-2.6.1-.6 0-2.4 0-3.2-.1-.9.1-2.5 0-3.1-.2-2.1-2-2.8-2.3-2.8" class="c" style="stroke:none;fill:#000;fill-opacity:1"/><path id="path2" d="M44.7 18.2c.5 1.9.8 3.8.8 5.9 0 2-.3 4-.8 5.8-.3 0-2.2-.6-2.3-2.6-.1-.6 0-2.4 0-3.2.1-.9-.1-2.5 0-3.1.2-2.2 2-2.8 2.3-2.8" class="c" style="stroke:none;fill:#000;fill-opacity:1"/><path id="path3" d="M29.8 3.3C28 2.8 26 2.5 24 2.5s-4 .3-5.8.8c0 .3.6 2.2 2.6 2.3.6.1 2.4 0 3.2 0 .9-.1 2.5.1 3.1 0 2.1-.2 2.7-2 2.7-2.3" class="c" style="stroke:none;fill:#000;fill-opacity:1"/><path id="path4" d="M29.8 44.7c-1.9.5-3.8.8-5.9.8-2 0-4-.3-5.8-.8 0-.3.6-2.2 2.6-2.3.6-.1 2.4 0 3.2 0 .9.1 2.5-.1 3.1 0 2.2.2 2.8 2 2.8 2.3" class="c" style="stroke:none;fill:#000;fill-opacity:1"/><path id="path5" d="M13.5 5.2c-1.7.9-3.3 2.1-4.7 3.6-1.4 1.4-2.6 3-3.5 4.7.2.2 2 1.1 3.5-.2.5-.4 1.7-1.6 2.3-2.3.6-.6 1.8-1.7 2.2-2.2 1.3-1.6.4-3.3.2-3.6" class="c" style="stroke:none;fill:#000;fill-opacity:1"/><path id="path6" d="M42.7 34.5c-.9 1.7-2.1 3.3-3.6 4.7-1.4 1.4-3 2.6-4.7 3.5-.2-.2-1.1-2 .2-3.5.4-.5 1.6-1.7 2.3-2.3.6-.6 1.7-1.8 2.2-2.2 1.7-1.2 3.4-.4 3.6-.2" class="c" style="stroke:none;fill:#000;fill-opacity:1"/><path id="path7" d="M34.5 5.2c1.7.9 3.3 2.1 4.7 3.6 1.4 1.4 2.6 3 3.5 4.7-.2.2-2 1.1-3.5-.2-.5-.4-1.7-1.6-2.3-2.3-.6-.6-1.8-1.7-2.2-2.2-1.3-1.6-.4-3.3-.2-3.6" class="c" style="stroke:none;fill:#000;fill-opacity:1"/><path id="path8" d="M5.3 34.5c.9 1.7 2.1 3.3 3.6 4.7 1.4 1.4 3 2.6 4.7 3.5.2-.2 1.1-2-.2-3.5-.4-.5-1.6-1.7-2.3-2.3-.6-.6-1.7-1.8-2.2-2.2-1.7-1.3-3.4-.4-3.6-.2" class="c" style="stroke:none;fill:#000;fill-opacity:1"/></svg>